<mxfile host="app.diagrams.net" modified="2024-04-03T18:20:55.588Z" agent="Mozilla/5.0 (Windows NT 10.0; Win64; x64) AppleWebKit/537.36 (KHTML, like Gecko) Chrome/121.0.0.0 Safari/537.36 OPR/107.0.0.0" etag="q3WhTQXKRZYyRJtT-FYv" version="24.2.2" type="device">
  <diagram name="Página-1" id="WDSP2k45l44BL-aFyhqK">
    <mxGraphModel dx="2220" dy="758" grid="1" gridSize="10" guides="1" tooltips="1" connect="1" arrows="1" fold="1" page="1" pageScale="1" pageWidth="827" pageHeight="1169" math="0" shadow="0">
      <root>
        <mxCell id="0" />
        <mxCell id="1" parent="0" />
        <mxCell id="tSj0p4MBHCHs88larQwI-8" value="&lt;font style=&quot;font-size: 14px;&quot;&gt;Funcionário&lt;/font&gt;" style="shape=umlActor;verticalLabelPosition=bottom;verticalAlign=top;html=1;outlineConnect=0;labelBackgroundColor=none;" parent="1" vertex="1">
          <mxGeometry x="20" y="426.25" width="30" height="60" as="geometry" />
        </mxCell>
        <mxCell id="tSj0p4MBHCHs88larQwI-13" value="Iniciar Sessão" style="ellipse;whiteSpace=wrap;html=1;labelBackgroundColor=none;" parent="1" vertex="1">
          <mxGeometry x="244.35" y="80" width="110" height="50" as="geometry" />
        </mxCell>
        <mxCell id="tSj0p4MBHCHs88larQwI-14" value="Ver Clientes" style="ellipse;whiteSpace=wrap;html=1;labelBackgroundColor=none;" parent="1" vertex="1">
          <mxGeometry x="245.45" y="570" width="127.81" height="50" as="geometry" />
        </mxCell>
        <mxCell id="tSj0p4MBHCHs88larQwI-15" value="Listar Encomendas do Cliente&amp;nbsp;" style="ellipse;whiteSpace=wrap;html=1;labelBackgroundColor=none;" parent="1" vertex="1">
          <mxGeometry x="244.35" y="630" width="130" height="50" as="geometry" />
        </mxCell>
        <mxCell id="tSj0p4MBHCHs88larQwI-16" value="Encerrar Sessão" style="ellipse;whiteSpace=wrap;html=1;labelBackgroundColor=none;" parent="1" vertex="1">
          <mxGeometry x="244.34999999999997" y="140" width="110" height="50" as="geometry" />
        </mxCell>
        <mxCell id="tSj0p4MBHCHs88larQwI-17" value="Ver Encomendas do Cliente" style="ellipse;whiteSpace=wrap;html=1;labelBackgroundColor=none;" parent="1" vertex="1">
          <mxGeometry x="246.1" y="690" width="130" height="50" as="geometry" />
        </mxCell>
        <mxCell id="tSj0p4MBHCHs88larQwI-23" value="Modificar Encomendas do Cliente" style="ellipse;whiteSpace=wrap;html=1;labelBackgroundColor=none;" parent="1" vertex="1">
          <mxGeometry x="248.9" y="750" width="130" height="50" as="geometry" />
        </mxCell>
        <mxCell id="EVJmHFKJhm2Tk9iF4NpR-2" value="" style="endArrow=none;html=1;rounded=0;entryX=0;entryY=0.5;entryDx=0;entryDy=0;" parent="1" target="tSj0p4MBHCHs88larQwI-13" edge="1">
          <mxGeometry width="50" height="50" relative="1" as="geometry">
            <mxPoint x="40" y="410" as="sourcePoint" />
            <mxPoint x="82.5" y="247.5" as="targetPoint" />
          </mxGeometry>
        </mxCell>
        <mxCell id="EVJmHFKJhm2Tk9iF4NpR-3" value="" style="endArrow=none;html=1;rounded=0;entryX=0;entryY=0.5;entryDx=0;entryDy=0;" parent="1" target="tSj0p4MBHCHs88larQwI-16" edge="1">
          <mxGeometry width="50" height="50" relative="1" as="geometry">
            <mxPoint x="50" y="410" as="sourcePoint" />
            <mxPoint x="334" y="309.75" as="targetPoint" />
          </mxGeometry>
        </mxCell>
        <mxCell id="EVJmHFKJhm2Tk9iF4NpR-4" value="" style="endArrow=none;html=1;rounded=0;entryX=0;entryY=0.5;entryDx=0;entryDy=0;" parent="1" target="HMcznnPwhv7nr-YGHbLa-5" edge="1">
          <mxGeometry width="50" height="50" relative="1" as="geometry">
            <mxPoint x="80" y="450" as="sourcePoint" />
            <mxPoint x="404.5" y="423.75" as="targetPoint" />
            <Array as="points" />
          </mxGeometry>
        </mxCell>
        <mxCell id="EVJmHFKJhm2Tk9iF4NpR-5" value="" style="endArrow=none;html=1;rounded=0;entryX=0;entryY=0.5;entryDx=0;entryDy=0;" parent="1" target="tSj0p4MBHCHs88larQwI-15" edge="1">
          <mxGeometry width="50" height="50" relative="1" as="geometry">
            <mxPoint x="80" y="470" as="sourcePoint" />
            <mxPoint x="415" y="433.75" as="targetPoint" />
          </mxGeometry>
        </mxCell>
        <mxCell id="EVJmHFKJhm2Tk9iF4NpR-7" value="" style="endArrow=none;html=1;rounded=0;entryX=0;entryY=0.5;entryDx=0;entryDy=0;" parent="1" target="tSj0p4MBHCHs88larQwI-23" edge="1">
          <mxGeometry width="50" height="50" relative="1" as="geometry">
            <mxPoint x="80" y="490" as="sourcePoint" />
            <mxPoint x="366" y="536.75" as="targetPoint" />
          </mxGeometry>
        </mxCell>
        <mxCell id="HMcznnPwhv7nr-YGHbLa-1" value="Listar Produtos" style="ellipse;whiteSpace=wrap;html=1;labelBackgroundColor=none;" parent="1" vertex="1">
          <mxGeometry x="246.7" y="270" width="115.29" height="50" as="geometry" />
        </mxCell>
        <mxCell id="HMcznnPwhv7nr-YGHbLa-2" value="Editar Produto" style="ellipse;whiteSpace=wrap;html=1;labelBackgroundColor=none;" parent="1" vertex="1">
          <mxGeometry x="244.35" y="390" width="117.8" height="50" as="geometry" />
        </mxCell>
        <mxCell id="HMcznnPwhv7nr-YGHbLa-3" value="Ver Produto" style="ellipse;whiteSpace=wrap;html=1;labelBackgroundColor=none;" parent="1" vertex="1">
          <mxGeometry x="244.35" y="330" width="120" height="50" as="geometry" />
        </mxCell>
        <mxCell id="HMcznnPwhv7nr-YGHbLa-4" value="Eliminar Produto" style="ellipse;whiteSpace=wrap;html=1;labelBackgroundColor=none;" parent="1" vertex="1">
          <mxGeometry x="245.45" y="450" width="120" height="50" as="geometry" />
        </mxCell>
        <mxCell id="HMcznnPwhv7nr-YGHbLa-5" value="Listar Clientes" style="ellipse;whiteSpace=wrap;html=1;labelBackgroundColor=none;" parent="1" vertex="1">
          <mxGeometry x="245.45" y="510" width="124.35" height="50" as="geometry" />
        </mxCell>
        <mxCell id="HMcznnPwhv7nr-YGHbLa-7" value="Criar Produto" style="ellipse;whiteSpace=wrap;html=1;labelBackgroundColor=none;" parent="1" vertex="1">
          <mxGeometry x="245.45" y="200" width="110" height="52.5" as="geometry" />
        </mxCell>
        <mxCell id="HMcznnPwhv7nr-YGHbLa-17" value="" style="endArrow=none;html=1;rounded=0;entryX=0;entryY=0.5;entryDx=0;entryDy=0;" parent="1" target="tSj0p4MBHCHs88larQwI-17" edge="1">
          <mxGeometry width="50" height="50" relative="1" as="geometry">
            <mxPoint x="80" y="480" as="sourcePoint" />
            <mxPoint x="420" y="560" as="targetPoint" />
          </mxGeometry>
        </mxCell>
        <mxCell id="HMcznnPwhv7nr-YGHbLa-18" value="" style="endArrow=none;html=1;rounded=0;entryX=0;entryY=0.5;entryDx=0;entryDy=0;" parent="1" target="tSj0p4MBHCHs88larQwI-14" edge="1">
          <mxGeometry width="50" height="50" relative="1" as="geometry">
            <mxPoint x="80" y="460" as="sourcePoint" />
            <mxPoint x="450" y="460" as="targetPoint" />
          </mxGeometry>
        </mxCell>
        <mxCell id="HMcznnPwhv7nr-YGHbLa-19" value="" style="endArrow=none;html=1;rounded=0;entryX=0;entryY=0.5;entryDx=0;entryDy=0;" parent="1" target="HMcznnPwhv7nr-YGHbLa-4" edge="1">
          <mxGeometry width="50" height="50" relative="1" as="geometry">
            <mxPoint x="82.5" y="438.75" as="sourcePoint" />
            <mxPoint x="465.75" y="365" as="targetPoint" />
          </mxGeometry>
        </mxCell>
        <mxCell id="HMcznnPwhv7nr-YGHbLa-20" value="" style="endArrow=none;html=1;rounded=0;entryX=0;entryY=0.5;entryDx=0;entryDy=0;" parent="1" target="HMcznnPwhv7nr-YGHbLa-2" edge="1">
          <mxGeometry width="50" height="50" relative="1" as="geometry">
            <mxPoint x="80" y="430" as="sourcePoint" />
            <mxPoint x="270" y="301" as="targetPoint" />
          </mxGeometry>
        </mxCell>
        <mxCell id="HMcznnPwhv7nr-YGHbLa-21" value="" style="endArrow=none;html=1;rounded=0;entryX=0;entryY=0.5;entryDx=0;entryDy=0;" parent="1" target="HMcznnPwhv7nr-YGHbLa-3" edge="1">
          <mxGeometry width="50" height="50" relative="1" as="geometry">
            <mxPoint x="80" y="420" as="sourcePoint" />
            <mxPoint x="386.25" y="295" as="targetPoint" />
          </mxGeometry>
        </mxCell>
        <mxCell id="HMcznnPwhv7nr-YGHbLa-22" value="" style="endArrow=none;html=1;rounded=0;entryX=0;entryY=0.5;entryDx=0;entryDy=0;" parent="1" target="HMcznnPwhv7nr-YGHbLa-1" edge="1">
          <mxGeometry width="50" height="50" relative="1" as="geometry">
            <mxPoint x="80" y="410" as="sourcePoint" />
            <mxPoint x="320" y="277.5" as="targetPoint" />
          </mxGeometry>
        </mxCell>
        <mxCell id="HMcznnPwhv7nr-YGHbLa-23" value="" style="endArrow=none;html=1;rounded=0;entryX=0;entryY=0.5;entryDx=0;entryDy=0;" parent="1" target="HMcznnPwhv7nr-YGHbLa-7" edge="1">
          <mxGeometry width="50" height="50" relative="1" as="geometry">
            <mxPoint x="60" y="410" as="sourcePoint" />
            <mxPoint x="250" y="277.5" as="targetPoint" />
          </mxGeometry>
        </mxCell>
        <mxCell id="1hbilSKazgi46UPOUWlU-5" value="" style="swimlane;startSize=0;" parent="1" vertex="1">
          <mxGeometry x="100" y="70" width="350" height="750" as="geometry" />
        </mxCell>
        <mxCell id="1hbilSKazgi46UPOUWlU-6" value="&lt;font style=&quot;font-size: 14px;&quot;&gt;CompoStore&lt;/font&gt;" style="text;html=1;align=center;verticalAlign=middle;resizable=0;points=[];autosize=1;strokeColor=none;fillColor=none;" parent="1" vertex="1">
          <mxGeometry x="115" y="40" width="100" height="30" as="geometry" />
        </mxCell>
      </root>
    </mxGraphModel>
  </diagram>
</mxfile>
